<svg width="26" height="43" viewBox="0 0 26 43" fill="none" xmlns="http://www.w3.org/2000/svg">
<path d="M3.69838 0H20.6168C23.5898 0 26 2.80751 26 6.27085V42.1041C25.9999 42.4666 25.8123 42.7934 25.5247 42.9319C25.4317 42.9771 25.3318 43.0002 25.231 43C25.0269 43.0004 24.831 42.9064 24.6865 42.7384L16.0027 32.6083C12.6036 36.5159 7.9203 41.9249 7.41736 42.5914C7.18225 43.0034 6.70491 43.1155 6.35121 42.8416C6.22324 42.7425 6.12375 42.6011 6.06542 42.4355C6.01589 42.3352 5.99492 42.2192 6.00544 42.1041V4.47913C6.00544 2.99488 4.97253 1.79164 3.69838 1.79164C3.27367 1.79164 2.92934 1.39053 2.92934 0.895776C2.92934 0.401025 3.27367 0 3.69838 0Z" fill="url(#paint0_linear_332_2022)"/>
<path d="M3.11252 0C1.39344 0 -0.000191212 1.31353 -0.000191212 2.93381V5.13414C-0.000191212 7.29255 -0.000191212 6.08081 -0.000191212 6.08081H6.00781L6.00777 2.91281C6.00777 1.29253 4.83159 0 3.11252 0Z" fill="#C39D65"/>
<defs>
<linearGradient id="paint0_linear_332_2022" x1="38.3593" y1="-24.9553" x2="6.06393" y2="-24.8824" gradientUnits="userSpaceOnUse">
<stop stop-color="#C39D65"/>
<stop offset="0.333333" stop-color="#D5AF76"/>
<stop offset="0.53125" stop-color="#EBC389"/>
<stop offset="0.807292" stop-color="#CFA870"/>
<stop offset="1" stop-color="#C39D65"/>
</linearGradient>
</defs>
</svg>
