<svg width="100" height="94" viewBox="0 0 100 94" fill="none" xmlns="http://www.w3.org/2000/svg">
<path fill-rule="evenodd" clip-rule="evenodd" d="M47.2762 0.0303176C45.7207 0.169873 44.3104 0.587166 43.0385 1.28426C40.474 2.68974 39.5504 4.73279 40.0344 7.92941C40.1993 9.01844 40.7043 11.1059 41.1283 12.4511C41.2442 12.8187 41.339 13.1307 41.339 13.1444C41.339 13.1581 41.2674 13.1836 41.1799 13.2009C40.9366 13.2493 40.7646 13.3847 40.6065 13.6522C40.4731 13.878 40.4628 13.9376 40.4652 14.4766C40.4679 15.0814 40.5337 15.5664 40.7069 16.2569C40.7629 16.4807 40.8443 17.0274 40.8875 17.4718C40.9993 18.6218 41.0592 18.9115 41.2173 19.0688C41.2901 19.1412 41.3929 19.2141 41.4458 19.2308C41.5797 19.2731 41.5952 19.6215 41.6304 23.3771C41.6535 25.8426 41.6766 26.5987 41.7374 26.8851C41.8169 27.2592 42.0493 27.8093 42.2407 28.0766C42.411 28.3145 42.382 28.3841 42.0958 28.4236C39.6316 28.7645 36.823 29.5073 34.3338 30.4765C33.9132 30.6402 33.5598 30.765 33.5484 30.7536C33.537 30.7422 33.2643 30.1178 32.9423 29.366C32.2224 27.6847 32.2228 27.6985 32.8915 27.3651C33.2773 27.1727 33.7407 26.7016 33.9335 26.3057C34.0684 26.0289 34.1391 25.9541 34.4581 25.7511C34.928 25.4521 35.8384 24.5858 36.2404 24.0553C37.0356 23.0056 37.409 21.8201 37.4086 20.3461C37.408 18.5068 36.7898 16.8401 35.6705 15.6601C35.1984 15.1624 34.7742 14.8537 34.1425 14.5485C33.0157 14.0041 31.7696 13.8635 30.2938 14.1142C29.8456 14.1904 29.8441 14.1903 29.7523 14.0695C29.6545 13.9408 29.5739 13.9725 29.5402 14.1529C29.5264 14.2269 29.4021 14.2875 29.0438 14.3945C27.4734 14.8638 26.659 15.4712 25.5694 16.9857C25.089 17.6534 24.3652 18.5703 24.3184 18.5703C24.3096 18.5703 23.9593 18.2019 23.54 17.7516C22.8398 16.9997 22.5908 16.8047 22.5908 17.008C22.5908 17.0493 22.7966 17.5602 23.0482 18.1432C23.2996 18.7262 23.4924 19.237 23.4765 19.2784C23.4401 19.3725 22.9244 19.6739 22.5377 19.827C22.3771 19.8906 21.8502 20.0606 21.3669 20.2049C19.8418 20.6602 19.2029 20.9885 18.9718 21.4355C18.8588 21.6541 18.8573 21.6804 18.9186 22.3735C19.032 23.657 19.2468 25.3221 19.3513 25.7286C19.4726 26.2005 19.7055 26.5716 20.1373 26.9812C20.6619 27.4789 21.3708 27.8743 22.054 28.0504C22.9381 28.2783 23.9872 28.2526 26.043 27.953L27.238 27.7789L27.5036 28.0103C28.2478 28.6587 29.2567 28.8532 30.1854 28.5274C30.7167 28.341 30.7796 28.4162 31.4802 30.0747C31.7906 30.8096 32.0446 31.4283 32.0446 31.4497C32.0446 31.4711 31.8627 31.578 31.6403 31.6874C30.3031 32.3455 28.8127 33.4044 27.6967 34.4893C25.4145 36.7078 24.4648 39.0443 23.4159 45.0206C22.4794 50.356 21.9601 54.6848 21.8143 58.3716C21.7822 59.1854 21.7645 59.3068 21.6264 59.6658C21.2426 60.6637 21.0859 61.5043 21.0899 62.5446C21.102 65.7109 22.6503 68.0748 25.2915 68.9597C25.9755 69.1889 26.3563 69.2452 27.2115 69.2438C27.9278 69.2426 28.1025 69.2245 28.5572 69.1043C28.8445 69.0283 29.3345 68.8436 29.6459 68.6937L30.2122 68.4213L31.0886 68.3741C31.9153 68.3296 33.7356 68.1471 33.9964 68.0826C34.1421 68.0465 34.1408 68.0105 34.0362 69.1737C33.9932 69.6531 33.9576 70.1449 33.9572 70.2668L33.9566 70.4883L34.6295 70.8434C43.363 75.4513 54.0065 75.9207 63.3004 72.1079C63.7677 71.9161 64.7297 71.4721 65.4381 71.1211C66.6388 70.5263 66.7258 70.4736 66.7234 70.3434C66.722 70.2666 66.6793 69.7224 66.6286 69.1341C66.5779 68.5458 66.5441 68.0645 66.5535 68.0645C66.563 68.0645 66.9582 68.1111 67.4317 68.1681C68.4358 68.2889 69.5766 68.3814 70.0644 68.3814C70.3726 68.3814 70.4671 68.4106 70.9965 68.6701C72.801 69.5544 74.7862 69.4394 76.6784 68.3411C77.2618 68.0024 78.1791 67.0915 78.5321 66.5001C79.6596 64.6117 79.8966 62.1139 79.1489 59.9981C78.9074 59.3149 78.9338 59.5343 78.7537 56.7077C78.5585 53.6457 78.2651 51.1966 77.6082 47.147C76.9146 42.8717 76.4403 40.7088 75.8186 38.986C75.4553 37.9791 75.1595 37.3723 74.4899 36.2594C74.4089 36.1248 74.4139 36.1114 74.6766 35.7576C74.825 35.5577 75.1604 35.0732 75.4219 34.681C78.0447 30.7467 79.7989 26.3097 80.5599 21.6849C80.7337 20.6281 80.9111 19.0824 80.8638 19.036C80.8147 18.9879 76.4755 17.1058 74.4617 16.2591L72.8603 15.5859L72.3823 15.5869C71.9686 15.5878 71.8679 15.6069 71.634 15.7288C71.289 15.9085 71.0585 16.1713 70.8348 16.6397C70.737 16.8447 69.9904 18.9971 69.1757 21.4229C68.0084 24.8986 66.6715 28.7089 66.0974 30.1961L66.0445 30.3331L64.5928 29.8497C63.0996 29.3524 62.3169 29.1296 61.1542 28.8709C60.4607 28.7165 59.1183 28.48 58.5868 28.4184C58.4188 28.399 58.2814 28.3735 58.2814 28.3619C58.2814 28.3503 58.3651 28.2154 58.4674 28.0622C58.9086 27.4013 58.9709 26.982 58.9715 24.6713C58.9723 21.579 59.0313 19.257 59.1091 19.257C59.2452 19.257 59.5019 18.9815 59.5577 18.7755C59.5889 18.6602 59.6598 18.1331 59.7153 17.6041C59.7707 17.0751 59.8785 16.3809 59.9548 16.0613C60.1005 15.4514 60.1893 14.2779 60.1183 13.9016C60.0571 13.5771 59.6335 13.1825 59.3462 13.1825C59.2863 13.1825 59.2374 13.1568 59.2374 13.1254C59.2374 13.094 59.3187 12.8013 59.4182 12.4749C60.1601 10.041 60.2224 7.4941 59.5692 6.30059C59.3198 5.84495 58.7831 5.45212 58.2157 5.31002L57.9777 5.25044L57.8974 4.84493C57.6224 3.4565 56.6303 2.2332 55.0947 1.389C53.9766 0.774367 52.3754 0.31339 50.6334 0.104691C49.8258 0.00797396 47.9811 -0.0329102 47.2762 0.0303176ZM48.8811 3.33148C49.3765 3.65902 50.0981 4.34819 50.5038 4.88116C50.8567 5.34499 51.2857 6.14614 51.3507 6.46307C51.4003 6.70473 51.2691 6.89669 51.0544 6.89669C50.6601 6.89669 50.4631 6.64378 50.2003 5.80026C49.928 4.92601 49.4427 4.20246 48.6491 3.48767C48.426 3.28663 48.2434 3.10128 48.2434 3.07571C48.2434 2.98613 48.5367 3.10376 48.8811 3.33148ZM45.7386 3.36116C47.058 3.66605 48.158 4.2369 48.9886 5.04792C49.8437 5.88277 50.015 6.44485 49.4817 6.66644C49.096 6.82675 48.8465 6.64732 48.1993 5.74433C47.2685 4.44575 46.3832 3.79509 45.0464 3.42703C44.7632 3.34906 44.5451 3.26344 44.5616 3.23677C44.6019 3.17195 45.1878 3.23391 45.7386 3.36116ZM43.6021 5.73661C44.0912 5.90401 44.6372 6.33556 44.7538 6.647C44.7899 6.74356 44.6318 6.94951 44.5215 6.94951C44.4594 6.94951 44.2956 6.78439 43.9741 6.39752C43.7047 6.07341 43.4512 5.91135 42.982 5.7634C42.7694 5.69636 42.6318 5.6287 42.6727 5.61127C42.7896 5.56156 43.2862 5.62854 43.6021 5.73661ZM47.9045 6.92511C48.164 6.96974 48.8183 7.13645 49.3587 7.29549C50.7558 7.70671 50.9725 7.7467 51.9791 7.7794C53.3209 7.82292 54.1018 7.68675 55.2524 7.2086C55.8319 6.96779 55.9632 6.97164 56.2303 7.23728C56.6518 7.65648 56.8635 8.50189 56.8659 9.77548C56.8675 10.6439 56.8197 11.0224 56.624 11.6933L56.5114 12.0793L56.807 12.38C57.0926 12.6707 57.3922 13.0997 57.5286 13.4133C57.5885 13.5511 57.5858 13.5613 57.4997 13.5255C56.3643 13.0529 55.3649 13.077 54.2746 13.6032C53.674 13.893 53.6296 13.9071 52.7694 14.0799C51.9387 14.2469 51.5775 14.3915 51.4063 14.6256C51.3045 14.7647 51.2962 14.8612 51.2813 16.0771C51.2725 16.7935 51.2789 17.4335 51.2956 17.4995C51.3733 17.8077 52.1949 17.5115 52.4087 17.0982C52.4482 17.0218 52.5081 16.781 52.5417 16.5631C52.6339 15.9662 52.9003 15.6423 53.4567 15.4503C53.6425 15.3862 53.6582 15.3903 53.8115 15.5428C54.2863 16.015 55.0708 16.0121 55.5173 15.5364C55.6235 15.4233 55.6778 15.4038 55.8094 15.4317C56.0395 15.4805 56.5581 15.7017 56.8035 15.8558L57.0124 15.987L56.9758 15.7865C56.9245 15.5063 56.72 15.1196 56.487 14.8627L56.2897 14.6451L56.5022 14.6821C56.8999 14.7511 57.3659 15.0186 57.5985 15.3112C57.804 15.5697 57.8124 15.5947 57.779 15.8482C57.6795 16.6036 57.1769 17.7039 56.3669 18.9401C56.167 19.2451 55.9424 19.6321 55.8677 19.7999C55.6221 20.3526 55.5 21.4432 55.6242 21.9759C55.6511 22.0912 55.6632 22.1954 55.6512 22.2074C55.6392 22.2194 55.4837 22.1751 55.3059 22.1089C55.0058 21.9973 54.7166 21.8192 53.5674 21.0381C53.0645 20.6964 52.5791 20.5247 52.1149 20.5247C51.9427 20.5247 51.8018 20.5054 51.8018 20.4818C51.8018 20.4582 51.8718 20.3722 51.9573 20.2907C52.1191 20.1366 52.2639 19.8574 52.2099 19.8037C52.1927 19.7867 51.9684 19.8565 51.7114 19.9589C51.051 20.222 50.7329 20.2799 50.1206 20.2481C49.6094 20.2216 49.4384 20.1755 48.5774 19.8317C48.4836 19.7943 48.3923 19.778 48.3745 19.7957C48.329 19.841 48.5285 20.2142 48.6627 20.3348C48.833 20.4881 48.8002 20.5247 48.4921 20.5247C47.9167 20.5247 47.4287 20.736 46.597 21.3451C46.1026 21.7071 45.3037 22.1454 44.9625 22.2417C44.8462 22.2745 44.8433 22.2674 44.8829 22.0473C44.9526 21.6597 44.9181 20.6846 44.8218 20.3224C44.6916 19.8322 44.5349 19.5187 44.0519 18.7816C43.4386 17.8457 43.0144 16.9741 42.8452 16.3024C42.7107 15.7683 42.7092 15.7458 42.7987 15.5805C43.0293 15.1547 43.5675 14.7761 44.0639 14.6905L44.2661 14.6556L44.0309 14.9428C43.8105 15.2121 43.6713 15.4996 43.5993 15.8349L43.5686 15.9783L43.9542 15.7737C44.1662 15.6613 44.4765 15.5273 44.6435 15.476L44.9473 15.3827L45.0602 15.5254C45.4334 15.9973 46.2655 16.0248 46.7387 15.5809C46.9373 15.3946 46.9428 15.393 47.1526 15.4619C47.6748 15.6333 47.9908 16.0407 48.0586 16.63C48.0795 16.8111 48.1295 17.0234 48.1699 17.1018C48.3127 17.3791 48.7575 17.6195 49.1277 17.6195H49.3056V16.2276C49.3056 14.8722 49.3025 14.8309 49.1861 14.6561C49.0114 14.394 48.674 14.2542 47.7859 14.076C47.1561 13.9496 46.8803 13.8643 46.4298 13.6563C45.7155 13.3265 45.3701 13.2329 44.738 13.1978C44.1795 13.1666 43.7649 13.2445 43.2562 13.476C43.0983 13.5478 42.9577 13.5951 42.9436 13.5811C42.8604 13.4984 43.3229 12.7579 43.717 12.3431L43.9875 12.0583L43.8356 11.6036C43.549 10.7454 43.5114 9.77775 43.7314 8.9214C43.9685 7.99824 44.5406 7.33976 45.3331 7.07797C46.0145 6.8529 47.1078 6.78788 47.9045 6.92511ZM32.7179 14.6652C33.2676 14.74 34.0062 14.9877 34.44 15.243C35.1039 15.6336 35.8628 16.4539 36.2329 17.1808C36.4201 17.5484 36.6068 18.1817 36.6647 18.6454C36.8365 20.0201 36.0961 21.6307 34.8742 22.5407C34.3795 22.9092 33.3556 23.4425 32.5198 23.7671C31.0008 24.3569 29.4194 24.7086 26.8131 25.0364C24.7584 25.2949 24.1174 25.3476 23.0157 25.3487C21.8273 25.3499 21.4246 25.2837 20.8466 24.9924C20.0834 24.6078 19.4381 23.4942 19.4349 22.5565C19.4339 22.2567 19.4619 22.1275 19.5795 21.8883C19.8341 21.3708 20.1142 21.226 21.5001 20.895C22.4381 20.6709 22.8432 20.5335 23.426 20.2416C23.6371 20.1358 23.8211 20.0493 23.8351 20.0493C23.8855 20.0493 24.0806 20.5471 24.0557 20.6118C24.0417 20.6482 23.9067 20.7482 23.7557 20.8339L23.4813 20.9898L23.4688 21.7477C23.4519 22.7735 23.277 23.4988 22.8374 24.3662C22.731 24.5761 22.6439 24.7631 22.6439 24.7818C22.6439 24.8005 23.0323 24.8042 23.507 24.79C24.2079 24.7691 24.4678 24.7387 24.8904 24.6278C26.1483 24.2977 27.2988 23.4659 27.9623 22.4072L28.0902 22.2031L27.9361 21.7469C27.6461 20.8883 27.6988 20.0094 28.0868 19.2333C28.1892 19.0285 28.2617 18.9084 28.248 18.9665C28.06 19.7601 28.1373 20.7045 28.4356 21.2617C28.5314 21.4406 28.5376 21.4436 28.5711 21.3278C28.6479 21.0615 28.9609 20.4831 29.1696 20.2217C29.3915 19.9438 29.8827 19.5211 29.9839 19.5211C30.0657 19.5211 29.995 19.832 29.7373 20.604C29.2777 21.9815 28.5252 23.2709 27.5871 24.2883L27.307 24.592H27.4682C27.7311 24.592 29.0005 24.3433 29.6117 24.1721C30.3225 23.973 31.1321 23.6561 31.7519 23.3344C32.1658 23.1196 32.2593 23.0444 32.4534 22.7697C32.9154 22.1163 33.1747 21.4647 33.2792 20.6945C33.3158 20.4246 33.3689 20.1988 33.3973 20.1926C33.4871 20.173 33.6416 20.6862 33.6708 21.1013C33.6917 21.3983 33.6729 21.601 33.5982 21.8849C33.5427 22.0956 33.5125 22.2679 33.5309 22.2679C33.5494 22.2679 33.7057 22.1833 33.8783 22.0799C34.8042 21.5254 35.4987 20.7163 35.8827 19.7448C36.0155 19.4089 36.0486 19.2375 36.0689 18.7806C36.0996 18.0899 36.0307 17.7439 35.75 17.1814C35.3251 16.3297 34.4505 15.6451 33.5051 15.424C32.7716 15.2525 31.5831 15.3329 30.7987 15.6071C30.6249 15.6678 30.4674 15.6998 30.4487 15.6781C30.43 15.6565 30.3469 15.4764 30.2639 15.278C30.0847 14.8494 30.073 14.8633 30.7119 14.7461C31.518 14.5983 32.0639 14.5763 32.7179 14.6652ZM29.6116 15.6945C29.6342 16.2817 29.6294 16.3163 29.4855 16.6C29.4032 16.7622 29.3335 16.9569 29.3306 17.0327C29.3277 17.1085 29.3071 17.23 29.2849 17.3026C29.246 17.4294 29.2399 17.4253 29.132 17.197C28.9222 16.7533 29.0099 16.2895 29.3741 15.9178L29.5664 15.7215L29.3582 15.7784C28.8273 15.9234 28.0571 16.3557 27.7046 16.7068C27.594 16.8169 27.2308 17.2615 26.8973 17.6949C26.2372 18.5531 25.3738 19.5739 25.3083 19.5739C25.2857 19.5739 25.1869 19.4915 25.0888 19.3909L24.9103 19.2078L25.4634 18.6377C26.0322 18.0516 26.4888 17.5146 26.8906 16.9593C27.31 16.3798 27.7289 16.0044 28.4109 15.597C28.7399 15.4005 29.4202 15.0894 29.5284 15.086C29.568 15.0847 29.5961 15.2901 29.6116 15.6945ZM31.09 17.3267C31.0276 17.4272 30.9045 17.5697 30.8165 17.6433C30.6061 17.8194 30.1304 17.9564 29.906 17.9055C29.7348 17.8667 29.7353 17.8662 30.0383 17.7753C30.4199 17.6607 30.7432 17.4724 30.9816 17.2257C31.1957 17.0043 31.2557 17.0602 31.09 17.3267ZM73.8686 17.6655C74.1929 17.8455 74.4483 18.1986 74.536 18.5881C74.6565 19.1236 74.3644 19.736 73.8577 20.01C73.4946 20.2063 73.1902 20.2416 72.8096 20.1315C72.3975 20.0124 72.0271 19.6518 71.9083 19.2539C71.8046 18.9065 71.8036 18.7652 71.9028 18.4347C72.0337 17.9981 72.379 17.6729 72.8869 17.5076C73.1176 17.4324 73.5838 17.5075 73.8686 17.6655ZM79.154 20.2029C79.154 20.2293 79.0831 20.6274 78.9964 21.0877C78.1154 25.7663 76.4305 30.0203 73.8843 33.9943C73.4117 34.7319 72.558 35.9562 72.5333 35.9316C72.5245 35.9229 72.9968 34.1265 73.5829 31.9398C74.1689 29.753 74.6371 27.9526 74.6233 27.9389C74.6095 27.9251 73.4065 28.5417 71.95 29.3091C70.4935 30.0766 69.1943 30.7579 69.0629 30.8232L68.8239 30.9419L69.0668 30.6853C70.0937 29.6011 72.4508 27.0807 72.5151 26.9981C72.5612 26.9389 72.2257 27.0863 71.7184 27.3481C69.3243 28.5837 68.3193 29.0866 68.3193 29.0491C68.3193 29.0265 68.4436 28.6978 68.5954 28.3186C68.7472 27.9395 69.089 26.9906 69.3548 26.21L69.8381 24.7907L74.4562 22.4739C76.9962 21.1996 79.0922 20.1566 79.1141 20.156C79.136 20.1555 79.154 20.1765 79.154 20.2029ZM25.9881 20.5856C25.7138 21.131 25.1721 21.4764 24.5937 21.4747C24.1875 21.4735 24.124 21.4001 24.4639 21.3244C24.9196 21.223 25.3654 20.9824 25.73 20.6411C25.9167 20.4663 26.0772 20.3306 26.0866 20.3396C26.0959 20.3486 26.0516 20.4593 25.9881 20.5856ZM21.3746 21.3196C20.7463 21.4832 20.2298 21.8484 20.0621 22.2474C19.8504 22.7515 20.0659 23.4504 20.6071 24.0148C20.9657 24.3887 21.6101 24.7466 21.7201 24.6331C21.8598 24.4889 22.1214 23.8917 22.2272 23.4758C22.3687 22.9192 22.3445 22.1105 22.1701 21.568C22.0366 21.1527 22.027 21.1497 21.3746 21.3196ZM50.7793 22.9715C51.0806 23.2365 51.3318 23.4146 51.6437 23.5842L51.9258 23.7377L51.7443 23.8488C51.2027 24.1802 50.2625 24.3114 49.6243 24.1447C49.3221 24.0657 48.7209 23.803 48.722 23.7504C48.7224 23.7339 48.8635 23.6436 49.0356 23.5495C49.2077 23.4555 49.4763 23.263 49.6325 23.1218C49.9659 22.8202 49.9972 22.8057 50.3279 22.8003C50.5411 22.7967 50.6107 22.8231 50.7793 22.9715ZM43.3006 25.1335C43.9698 26.9552 44.8216 28.3231 46.1539 29.7154C46.3976 29.9701 46.597 30.1948 46.597 30.2148C46.597 30.3943 45.5686 29.6934 44.9822 29.1141C44.015 28.1587 43.3783 26.9625 43.114 25.6042C43.0324 25.1849 43.0131 24.6448 43.0799 24.6448C43.1025 24.6448 43.2019 24.8647 43.3006 25.1335ZM45.9014 27.3415C46.3058 28.2381 46.7814 29.076 47.455 30.0786C47.7745 30.5541 48.0276 30.9516 48.0173 30.9618C47.9762 31.0028 47.4526 30.5286 47.1205 30.1497C46.438 29.3709 45.9279 28.4094 45.6665 27.4091C45.4261 26.4889 45.5065 26.4658 45.9014 27.3415ZM5.58955 27.8853C5.29749 27.9655 4.96804 28.1962 4.74115 28.4795C4.3809 28.9291 4.40034 28.7636 4.40034 31.3796V33.7566L4.55 34.0598C4.71704 34.3981 5.01048 34.667 5.41369 34.8513C5.80953 35.0321 6.4228 35.0187 6.81689 34.8206C7.21373 34.621 7.43839 34.3973 7.61998 34.0207L7.77278 33.7038L7.77283 31.4013L7.77288 29.0987L7.61164 28.7778C7.43738 28.4311 7.15658 28.145 6.8256 27.977C6.55765 27.8411 5.92223 27.7939 5.58955 27.8853ZM97.9021 27.8628C97.5962 27.9261 97.2913 28.1114 97.0517 28.3798C96.6138 28.87 96.6298 28.755 96.6292 31.406L96.6285 33.7566L96.7527 34.0207C96.9006 34.3351 97.2831 34.7 97.6272 34.8552C97.9757 35.0122 98.6262 35.0117 98.9759 34.8542C99.3258 34.6965 99.7256 34.3073 99.8748 33.9792L100 33.7038V31.3796V29.0555L99.8593 28.7903C99.6976 28.4859 99.2566 28.0532 98.9985 27.946C98.7854 27.8574 98.158 27.8098 97.9021 27.8628ZM1.17024 27.9842C1.04787 28.0164 0.845784 28.1497 0.660426 28.3204C0.266184 28.6834 0.0752502 29.0869 0.0326553 29.6474C-0.00627504 30.1591 0.0294155 30.1911 0.637748 30.1911C1.11686 30.1911 1.18713 30.1475 1.18713 29.8496C1.18713 29.6702 1.32288 29.3514 1.46187 29.2042C1.61488 29.0422 1.83471 29.0043 2.03212 29.1059C2.48229 29.3373 2.46163 30.1258 1.98432 30.9307C1.87236 31.1195 1.43006 31.7732 1.0014 32.3833C0.00748068 33.7979 0.00360359 33.8056 9.82678e-05 34.3459C-0.0017075 34.6292 0.0213958 34.8055 0.0676023 34.8609C0.129105 34.9346 0.338468 34.9451 1.74065 34.9451C2.91647 34.9451 3.36043 34.9282 3.40716 34.8817C3.44684 34.8423 3.4709 34.647 3.4709 34.3641C3.4709 34.0812 3.44684 33.8859 3.40716 33.8464C3.3642 33.8037 3.11766 33.7828 2.65033 33.7822C1.9737 33.7815 1.72732 33.7332 1.68063 33.5923C1.66996 33.56 2.00004 33.0252 2.4142 32.4038C2.82831 31.7824 3.22462 31.1462 3.29483 30.9899C3.63145 30.2408 3.65987 29.4853 3.37323 28.9063C3.15414 28.4637 2.77876 28.1132 2.4056 28.003C2.09368 27.9109 1.48354 27.9016 1.17024 27.9842ZM93.4405 27.9659C92.8752 28.151 92.4254 28.7017 92.2789 29.3882C92.1965 29.7748 92.2043 30.0102 92.3027 30.1082C92.4094 30.2142 93.2396 30.2281 93.3202 30.1251C93.3486 30.0888 93.3988 29.9208 93.4318 29.7518C93.5057 29.3731 93.6514 29.1609 93.8916 29.0821C94.2682 28.9585 94.5841 29.2691 94.5805 29.7594C94.576 30.3892 94.4577 30.6023 92.7262 33.0987L92.2506 33.7845L92.2286 34.2857C92.2132 34.6359 92.2264 34.8108 92.2725 34.8661C92.3284 34.9331 92.5821 34.945 93.9386 34.9443C94.8552 34.9438 95.5727 34.9221 95.6183 34.8934C95.7333 34.821 95.7331 33.9069 95.6181 33.8346C95.5744 33.8071 95.2399 33.7819 94.8748 33.7786C94.0978 33.7715 93.9515 33.7418 93.9289 33.5865C93.9181 33.5123 94.1516 33.1175 94.6117 32.4324C95.6413 30.8994 95.8075 30.4987 95.7685 29.643C95.7446 29.119 95.5766 28.7205 95.2375 28.3837C94.8958 28.0443 94.6714 27.9582 94.0783 27.9388C93.8007 27.9297 93.5137 27.9419 93.4405 27.9659ZM6.28126 29.106C6.59897 29.2694 6.61108 29.3604 6.59366 31.4551C6.57842 33.2864 6.57401 33.3581 6.46657 33.5019C6.40214 33.5882 6.27308 33.6717 6.16017 33.7002C5.99786 33.7411 5.94071 33.7314 5.82005 33.6426C5.52549 33.4258 5.5171 33.371 5.49899 31.5495C5.48008 29.6416 5.50951 29.3744 5.7621 29.163C5.94486 29.01 6.06839 28.9965 6.28126 29.106ZM98.605 29.1831L98.7785 29.3372L98.795 31.3092C98.8097 33.074 98.8021 33.2989 98.7223 33.4491C98.5466 33.7797 98.1103 33.8069 97.881 33.5015C97.7733 33.3581 97.7688 33.2872 97.7529 31.4947C97.7352 29.4997 97.753 29.3231 97.9902 29.1376C98.1865 28.984 98.3985 28.9997 98.605 29.1831ZM48.0613 32.2139C48.2932 32.332 48.9897 32.5003 49.5167 32.5653C50.7336 32.7157 52.1161 32.5247 53.018 32.0817C53.2633 31.9612 54.1834 31.3856 55.0627 30.8025C55.942 30.2195 56.6833 29.7332 56.7099 29.7219C56.7943 29.6859 56.3187 30.5182 56.0062 30.9531C55.3437 31.8752 54.4618 32.6167 53.4352 33.1151C52.4895 33.5741 52.4178 33.6918 52.4023 34.8089C52.3916 35.5819 52.3888 35.5993 52.2572 35.7069C52.1833 35.7673 52.0575 35.9593 51.9775 36.1336C51.8366 36.4408 51.8321 36.4798 51.8301 37.4013C51.8281 38.3154 51.8229 38.3613 51.6954 38.5882C51.2874 39.3137 49.5821 39.4107 49.0152 38.7407C48.817 38.5064 48.7752 38.2678 48.7748 37.3713C48.7745 36.442 48.706 36.1081 48.4582 35.8274C48.3058 35.6548 48.3058 35.6547 48.3113 34.9434C48.3207 33.7368 48.2369 33.5911 47.2489 33.0956C46.8626 32.9018 46.37 32.6087 46.1541 32.4444C45.6784 32.082 45.0108 31.3969 44.6792 30.9307C44.4085 30.5502 43.9764 29.8077 43.9186 29.6237C43.891 29.5357 44.3985 29.8432 45.8898 30.818C46.9944 31.54 47.9716 32.1682 48.0613 32.2139ZM42.4211 30.7326C42.5845 31.8683 42.681 32.3442 42.8215 32.7066C43.3712 34.1242 44.7984 35.4899 46.6366 36.3574C47.4901 36.7602 47.6359 36.9711 47.5753 37.7149C47.5354 38.2034 47.6128 38.7747 47.779 39.2194C47.9868 39.7754 48.5229 40.1824 49.2923 40.3682C49.789 40.4883 50.8637 40.4872 51.3238 40.3663C52.5978 40.0317 53.0234 39.4092 53.0234 37.8806C53.0234 36.8841 53.0665 36.8183 54.0392 36.3285C55.8185 35.4325 56.984 34.3756 57.6214 33.0802C57.87 32.5749 58.0357 31.9486 58.1412 31.1155L58.2082 30.5873L58.6829 30.5985C58.944 30.6046 59.3283 30.6243 59.5368 30.6421L59.9157 30.6744L59.9504 31.1591C60.0289 32.2562 60.0858 34.0571 60.0865 35.4622C60.0871 36.9046 60.0093 39.3928 59.9529 39.7321C59.9282 39.881 59.8752 39.9213 59.4118 40.1441C58.0842 40.7825 57.3686 41.6112 56.9 43.0533C56.8339 43.2566 56.7762 43.4279 56.7718 43.4338C56.7537 43.458 54.3606 43.6605 53.3952 43.7195C51.211 43.8531 47.7454 43.7941 45.2161 43.5801C43.7784 43.4585 43.9093 43.5045 43.7806 43.0748C43.5878 42.4308 43.1349 41.6072 42.7409 41.1839C42.3345 40.7474 41.6365 40.2679 41.0876 40.0481L40.7121 39.8978L40.667 39.1249C40.5654 37.3816 40.6427 30.8132 40.7662 30.6903C40.7773 30.6793 41.1079 30.6491 41.5009 30.6232C41.8938 30.5973 42.2561 30.5727 42.3059 30.5686C42.3698 30.5631 42.4036 30.6113 42.4211 30.7326ZM37.8003 32.8454C37.8203 33.7533 37.8605 34.9478 37.8896 35.4997C37.9465 36.5768 38.1362 38.9809 38.1866 39.2633C38.2122 39.4065 38.2008 39.435 38.1182 39.435C38.0406 39.435 37.9153 39.2044 37.5413 38.3733C36.9723 37.1089 36.8272 36.9399 36.2222 36.8369C36.1481 36.8244 35.8991 36.2933 35.1988 34.6546C34.6898 33.4635 34.2604 32.4403 34.2446 32.3808C34.2191 32.2842 34.2902 32.2463 34.9193 32.0211C35.5667 31.7893 37.4269 31.2461 37.7324 31.1996C37.7498 31.1969 37.7803 31.9376 37.8003 32.8454ZM63.6835 31.3794C64.6087 31.6224 65.3982 31.8758 65.3982 31.9297C65.3982 32.0447 62.5875 38.7199 62.5547 38.683C62.5479 38.6753 62.574 38.3006 62.6128 37.8503C62.7615 36.122 62.8023 35.2739 62.8327 33.268C62.8549 31.807 62.8815 31.1948 62.9229 31.1949C62.9552 31.195 63.2975 31.2781 63.6835 31.3794ZM33.6736 35.2224L34.6276 37.4542L34.4953 37.6554C34.2492 38.0301 34.2719 38.2971 34.6265 39.1965C34.8746 39.826 34.9205 39.987 34.8579 40.0076C34.8149 40.0218 34.4992 40.1731 34.1562 40.3437C33.1097 40.8645 32.462 41.4202 32.11 42.0994C31.9811 42.3481 31.9688 42.4342 31.9327 43.3438C31.8923 44.3604 31.8543 44.5744 31.5651 45.4123C31.3629 45.9981 31.3595 46.3457 31.55 46.9396C31.6802 47.3454 31.6936 47.4662 31.7022 48.3091C31.7077 48.8439 31.7366 49.2951 31.771 49.3797C31.8036 49.4602 31.95 49.7025 32.0964 49.9182C32.5022 50.5163 32.5827 50.7624 32.6242 51.5312C32.654 52.0848 32.6822 52.2399 32.7987 52.4909L32.9376 52.7903L32.6947 53.0719C32.3633 53.4561 31.9472 54.1007 31.6526 54.6862C31.5177 54.9544 31.4072 55.1862 31.4072 55.2013C31.4072 55.3027 31.5358 55.174 31.784 54.8238C32.128 54.3387 32.5865 53.9481 33.1294 53.6776L33.5293 53.4784L33.9687 53.8452C35.0435 54.7428 36.3265 55.3822 38.232 55.97C39.2554 56.2857 41.3737 56.8558 42.2419 57.0491C44.1842 57.4817 45.5209 58.0623 47.1862 59.1967L47.6786 59.5321L46.5403 60.0813C44.2439 61.1891 41.622 62.3738 40.3299 62.8874C37.3533 64.0703 33.5292 64.7941 30.612 64.7268L29.8963 64.7103L29.6911 64.1871C29.0629 62.585 28.9819 60.7009 29.4707 59.0619C29.5658 58.7429 29.5692 58.6094 29.482 58.6089C29.3586 58.6082 28.4398 59.6099 28.1128 60.1017C27.3225 61.2904 26.9371 62.4664 26.856 63.9361L26.8229 64.5353L26.6587 64.5039C26.2867 64.4328 25.7007 64.0892 25.3526 63.738C24.5414 62.9196 24.276 61.7263 24.4528 59.6922C24.6171 57.8019 25.316 55.8305 26.4716 53.9976C26.9237 53.2804 26.8449 53.2485 26.1201 53.8554C25.4433 54.422 25.5119 54.4317 25.512 53.7694C25.5123 51.736 25.7627 48.7588 26.2845 44.5851C26.9106 39.5782 27.5699 37.5545 29.1766 35.709C29.6287 35.1896 30.3255 34.5564 30.9684 34.0805C31.3653 33.7867 32.6095 33 32.6875 32.9934C32.7053 32.9919 33.149 33.995 33.6736 35.2224ZM68.6095 34.757C68.7928 34.8461 69.0403 35.0481 69.3099 35.3284C70.652 36.7238 71.0202 37.0134 72.2157 37.6132L72.9538 37.9835L73.1066 38.3791C73.4743 39.3308 73.7907 40.6248 74.0542 42.2552C74.3199 43.8989 74.7709 47.6376 74.9279 49.4976C75.0775 51.2712 75.2183 54.3308 75.1502 54.3308C75.1309 54.3308 75.0141 54.2401 74.8906 54.1292C74.266 53.5686 73.896 53.3285 73.896 53.4838C73.896 53.5119 74.025 53.7317 74.1827 53.9724C74.9387 55.1262 75.656 56.7684 75.9418 57.9996C76.2868 59.4858 76.354 61.3279 76.0992 62.3125C75.8715 63.1922 75.3214 63.8923 74.5656 64.2642C74.3288 64.3807 74.0633 64.4812 73.9756 64.4875L73.8163 64.499L73.785 63.8123C73.7205 62.3997 73.3182 61.2091 72.5066 60.0283C71.9948 59.2837 71.2187 58.5078 71.1019 58.6239C71.0884 58.6372 71.1369 58.8519 71.2094 59.1009C71.483 60.0398 71.5818 61.371 71.4499 62.3427C71.3471 63.1007 70.9423 64.4412 70.7446 64.6786C70.6937 64.7398 70.4891 64.7469 69.5675 64.7197C66.4557 64.6277 63.4715 64.0614 60.8041 63.0565C59.2936 62.4875 56.6167 61.271 52.4392 59.2552C50.9932 58.5575 49.4039 57.8032 48.9073 57.5789C45.7913 56.1719 43.4467 55.452 41.0835 55.1769C39.6217 55.0067 38.696 54.7847 37.5006 54.3176C36.3251 53.8583 35.3268 53.2164 34.6023 52.4543C33.9797 51.7994 33.6857 51.1464 33.7971 50.6663C33.9046 50.2036 33.8733 50.07 33.5924 49.7906C33.1893 49.3897 33.1085 48.9024 33.3512 48.3355C33.5598 47.8481 33.5598 47.8556 33.3527 47.5561C32.9549 46.9807 33.0086 46.2243 33.486 45.6793C33.6676 45.4719 33.6782 45.2982 33.5317 44.9285C33.3535 44.4789 33.4261 43.9569 33.7201 43.5735C33.9887 43.2233 34.3893 43.1581 35.1516 43.3407C35.647 43.4593 35.7432 43.4987 36.3471 43.8301C36.9083 44.138 37.2986 44.2418 37.8953 44.2418C38.935 44.2418 39.6711 43.9075 39.9609 43.3035C40.0661 43.0843 40.0791 42.9845 40.0659 42.4986C40.0403 41.5539 40.0362 41.5925 40.1715 41.4836C40.4177 41.2854 40.8923 41.5184 41.5308 42.1512C42.3368 42.95 42.5258 43.489 42.5882 45.1662C42.6313 46.3281 42.7065 46.7265 42.9913 47.3008C43.6964 48.7231 45.5432 49.6954 49.3626 50.6551C53.5899 51.7173 56.3042 52.1359 60.6979 52.4031C63.7706 52.5899 65.3598 52.8356 66.7949 53.3457C67.7767 53.6947 68.3416 54.0881 68.8595 54.7836C69.0436 55.0309 69.2028 55.2075 69.2132 55.1763C69.2702 55.0063 68.4248 53.561 67.9946 53.0928L67.7264 52.801L67.8716 52.4963C67.9955 52.236 68.0221 52.0951 68.0534 51.5312C68.0956 50.773 68.1951 50.4533 68.5361 49.9796C68.8893 49.4891 68.975 49.2444 68.9545 48.7857C68.915 47.9034 68.9404 47.5975 69.0954 47.0894C69.2887 46.4555 69.2985 45.8897 69.1236 45.4649C68.8508 44.8023 68.7888 44.4649 68.7488 43.423C68.7117 42.458 68.7042 42.4073 68.5546 42.1043C68.2376 41.4622 67.3894 40.7551 66.3591 40.2737L65.8922 40.0557L66.1229 39.1775C66.2498 38.6945 66.4983 37.6932 66.6752 36.9524C67.0548 35.3628 67.1014 35.2272 67.3751 34.9179C67.7067 34.5433 68.0724 34.4956 68.6095 34.757ZM49.8877 41.2998C49.622 41.4395 49.4118 41.7751 49.4118 42.0596C49.4118 42.6195 49.9854 43.0663 50.5202 42.9231C51.1852 42.745 51.4058 41.9907 50.9455 41.4692C50.6782 41.1664 50.2666 41.1005 49.8877 41.2998ZM60.5687 41.5546C60.6104 41.632 60.6178 41.8575 60.5924 42.2809C60.5527 42.9452 60.598 43.1801 60.8311 43.5184C61.2019 44.0566 62.1896 44.3606 63.1704 44.2383C63.655 44.1779 63.8731 44.0996 64.452 43.7782C64.6758 43.6539 64.9906 43.5071 65.1517 43.452C65.5679 43.3096 66.1886 43.2153 66.4225 43.259C66.9946 43.3657 67.4061 44.2203 67.1756 44.8228C67.1256 44.9535 67.0731 45.1633 67.059 45.289C67.0367 45.4876 67.0558 45.5453 67.2058 45.7309C67.4357 46.0154 67.5758 46.3989 67.5758 46.7435C67.5758 47.0835 67.5003 47.316 67.3006 47.5907C67.1175 47.8425 67.1158 47.9063 67.2823 48.2638C67.568 48.8769 67.4888 49.4251 67.0578 49.8187C66.79 50.0633 66.7829 50.0958 66.8597 50.7251C66.8935 51.0016 66.8806 51.1079 66.7795 51.3854C66.7133 51.5673 66.6102 51.7874 66.5504 51.8745C66.4907 51.9617 66.438 52.0389 66.4336 52.0461C66.4291 52.0532 66.3078 52.0245 66.1641 51.9822C65.4452 51.7709 64.3899 51.6631 62.2647 51.5841C58.2865 51.436 56.2075 51.2177 53.3553 50.6484C52.8222 50.542 52.3861 50.4413 52.3861 50.4247C52.3861 50.4081 52.7207 50.2938 53.1296 50.1709C55.3076 49.5157 56.7131 48.7215 57.4076 47.7536C57.9102 47.0531 58.0067 46.6868 58.0683 45.2454C58.1223 43.9833 58.2117 43.5085 58.4949 42.9801C58.9197 42.1874 59.7996 41.4424 60.311 41.4423C60.4579 41.4422 60.5237 41.4709 60.5687 41.5546ZM13.1317 64.2745C12.676 64.6594 11.8036 65.4025 11.1932 65.9258C9.99807 66.9503 9.32356 67.4855 8.19777 68.3026C6.14232 69.7945 5.70156 70.1423 5.70156 70.2722C5.70156 70.3134 6.09877 70.8379 6.58426 71.4376C7.28442 72.3024 7.49591 72.531 7.60664 72.5428C7.75344 72.5585 7.65822 72.6341 10.8023 70.0057C11.4538 69.461 12.0187 69.0152 12.0574 69.0152C12.0963 69.0152 12.128 69.0497 12.128 69.0918C12.128 69.134 11.7456 70.6817 11.2782 72.5312C10.8108 74.3807 10.4285 75.9447 10.4287 76.0069C10.4292 76.2624 11.8823 78.1006 12.0837 78.1006C12.1395 78.1006 13.2059 77.2845 14.4535 76.2869C15.7012 75.2894 17.2957 74.0485 17.9967 73.5295C20.3151 71.8131 20.5798 71.6 20.562 71.4643C20.5374 71.2772 18.7666 69.236 18.6243 69.2308C18.4769 69.2254 18.1442 69.4923 16.5938 70.8596C14.5488 72.6632 14.2347 72.9062 14.14 72.7574C14.1151 72.7183 14.0944 72.6507 14.094 72.6071C14.0931 72.5123 14.5009 70.9592 15.3359 67.8768C15.6747 66.6261 15.952 65.5616 15.952 65.5112C15.952 65.4116 14.1204 63.5746 14.0211 63.5746C13.9877 63.5746 13.5874 63.8896 13.1317 64.2745ZM85.5406 64.716C85.0659 65.3428 84.6775 65.9004 84.6775 65.9552C84.6775 66.0529 85.0911 66.3715 87.7471 68.3186C88.9161 69.1756 89.241 69.4632 89.1459 69.5568C89.0528 69.6484 88.1837 69.6297 84.5753 69.4585L81.5785 69.3163L81.4621 69.4615C81.3981 69.5414 81.2372 69.8005 81.1046 70.0373C80.972 70.2741 80.6939 70.7042 80.4867 70.993C80.2795 71.2818 80.11 71.547 80.11 71.5823C80.11 71.6724 80.3928 71.8969 82.2344 73.2683C84.2727 74.7863 84.5824 75.0353 86.4037 76.621C88.2168 78.1994 88.3076 78.2713 88.4593 78.2497C88.5397 78.2382 88.8493 77.9004 89.4188 77.2026C89.8813 76.6361 90.2861 76.1192 90.3185 76.054C90.3984 75.8925 90.3877 75.8824 89.1004 74.8971C86.6037 72.9861 85.8801 72.4188 85.8592 72.3562C85.8299 72.2687 86.3557 72.2706 89.4044 72.369C90.7335 72.4118 92.1277 72.4533 92.5028 72.461L93.1846 72.4751L93.5532 72.0789C94.0548 71.5399 94.8217 70.5446 94.8217 70.4327C94.8217 70.3762 93.9891 69.6744 92.6309 68.5861C90.3269 66.74 90.285 66.7054 88.9795 65.5753C87.2843 64.1078 86.6274 63.5746 86.5159 63.5755C86.4322 63.5762 86.1839 63.8666 85.5406 64.716ZM21.8066 74.1089C19.8607 74.4774 18.3747 75.634 17.4619 77.4904C16.9919 78.4465 16.8267 79.343 16.918 80.4426C17.0837 82.4373 18.269 84.0609 20.2247 84.9721C20.985 85.3263 21.4305 85.4161 22.4049 85.4116C23.1444 85.4081 23.3216 85.3898 23.7702 85.2704C25.3161 84.8589 26.4817 83.9387 27.4162 82.3921C28.5063 80.5878 28.4598 78.2341 27.2997 76.5001C26.7136 75.6239 25.5727 74.7264 24.5863 74.3654C23.7679 74.0659 22.6019 73.9583 21.8066 74.1089ZM75.5604 74.6869C75.2635 74.9288 74.7795 75.274 74.4849 75.4541C74.1307 75.6705 73.9491 75.8133 73.9491 75.8753C73.9491 75.9269 74.0101 76.1694 74.0847 76.4142C74.1592 76.659 74.6983 78.5113 75.2826 80.5304C76.541 84.8791 77.0656 86.6297 77.1718 86.8342C77.2374 86.9606 77.272 86.9787 77.3918 86.949C77.6032 86.8968 77.9851 86.6517 78.7556 86.0743C79.6486 85.4051 79.7382 85.3182 79.7382 85.1218C79.7382 85.0347 79.6577 84.7563 79.5594 84.503C79.2867 83.8008 79.2795 83.7358 79.4562 83.5687C79.8104 83.2341 82.0353 81.6397 82.1483 81.6397C82.2295 81.6397 82.5685 81.8665 82.8983 82.1414C83.2115 82.4025 83.3567 82.4848 83.5041 82.4848C83.714 82.4848 85.7976 80.9976 85.9839 80.7148C86.0313 80.6429 86.0573 80.551 86.0418 80.5107C85.9947 80.3887 83.6415 78.8448 79.7277 76.368C77.0041 74.6445 76.3304 74.2428 76.1686 74.2459C76.1309 74.2467 75.8572 74.4451 75.5604 74.6869ZM23.4162 77.0733C24.2774 77.2964 25.0153 78.0677 25.1965 78.9342C25.2804 79.3358 25.2302 79.9983 25.0842 80.4173C24.9358 80.8433 24.5181 81.4668 24.1949 81.7451C23.6007 82.2566 22.6486 82.5486 21.9547 82.4322C21.4505 82.3476 21.0214 82.1303 20.6184 81.7554C20.0873 81.2613 19.8291 80.679 19.8291 79.9758C19.8291 78.9368 20.5577 77.8009 21.5459 77.2995C21.844 77.1483 22.4655 76.9976 22.8054 76.9943C22.9672 76.9927 23.2421 77.0282 23.4162 77.0733ZM78.7025 78.9472C79.5095 79.5509 79.7913 79.8006 79.7913 79.9124C79.7913 80.0884 78.5908 80.9714 78.3912 80.9423C78.307 80.9301 78.2436 80.8159 78.1037 80.4248C77.8815 79.8038 77.4013 78.2302 77.4013 78.1233C77.4013 78.0197 77.8001 78.2723 78.7025 78.9472ZM30.6158 78.6355C30.555 78.7003 30.3939 78.969 30.2577 79.2325C30.1215 79.4961 29.8584 79.929 29.673 80.1946C29.4876 80.4603 29.3359 80.7052 29.3359 80.739C29.3359 80.8268 29.7943 81.0166 30.8264 81.3564C31.3211 81.5192 31.7259 81.6716 31.7259 81.695C31.7259 81.7506 31.1789 83.1685 30.809 84.0715C30.6488 84.4626 30.1651 85.5432 29.734 86.4729C28.7365 88.6242 28.4721 89.239 28.5062 89.3274C28.5481 89.436 28.7453 89.548 29.4272 89.8505C30.2213 90.2027 31.0276 90.5028 31.2937 90.5451L31.5003 90.578L31.822 89.7668C31.9989 89.3206 32.358 88.385 32.62 87.6878C33.2952 85.8909 34.2939 83.4745 34.5997 82.8978C34.6411 82.8199 34.7748 82.8699 35.6946 83.3072C36.2708 83.5812 36.7839 83.8054 36.8346 83.8054C36.9528 83.8054 36.9984 83.7157 37.1437 83.1985C37.2088 82.9663 37.3907 82.4874 37.5479 82.1342C37.7051 81.781 37.8337 81.4684 37.8337 81.4396C37.8337 81.4109 37.0868 81.1374 36.174 80.832C34.403 80.2394 33.0282 79.6771 31.6498 78.9815C31.1805 78.7446 30.7807 78.5434 30.7614 78.5342C30.742 78.525 30.6765 78.5706 30.6158 78.6355ZM66.6729 79.7359C65.3351 80.0205 64.1053 80.769 63.3896 81.7344C62.2101 83.3251 62.0097 85.3637 62.8318 87.4064C63.5042 89.0774 64.7623 90.2472 66.4378 90.7594C66.8759 90.8933 66.9804 90.9043 67.8148 90.9041C68.627 90.9037 68.771 90.8895 69.2488 90.7618C70.2041 90.5064 71.4418 89.8273 72.3055 89.0847L72.6004 88.8311L73.4472 88.7191C74.1888 88.6211 74.5333 88.5268 74.5333 88.4218C74.5333 88.4056 74.3748 88.0556 74.1811 87.6439C73.5383 86.2778 73.2521 85.5855 72.8785 84.4921C72.5016 83.3894 72.4039 83.1709 72.2882 83.1724C72.2523 83.1728 71.984 83.2835 71.6919 83.4184C71.3998 83.5533 70.7664 83.7965 70.2844 83.959C69.4694 84.2337 69.407 84.264 69.392 84.3921C69.3812 84.4849 69.567 84.901 69.9623 85.6691L70.5487 86.8084L70.2971 87.0295C69.9439 87.3397 69.6449 87.5377 69.261 87.7155C67.7641 88.4083 66.438 87.9271 65.7482 86.4407C65.036 84.9061 65.4106 83.372 66.6463 82.7626C67.0977 82.5399 67.4314 82.4615 67.921 82.4628C68.4192 82.4642 68.6732 82.5225 69.2699 82.7728C69.5985 82.9106 69.6127 82.9122 69.7045 82.8189C69.9371 82.5825 70.4077 81.0734 70.3803 80.6518C70.3658 80.4283 70.3423 80.3878 70.1517 80.2569C69.8421 80.0444 69.2553 79.812 68.7863 79.7161C68.2331 79.6031 67.2543 79.6122 66.6729 79.7359ZM58.0424 82.5389C56.3576 82.8171 55.882 82.8834 54.1022 83.0883C53.2496 83.1865 52.5266 83.2824 52.4956 83.3015C52.4097 83.3543 52.4238 83.4906 52.6265 84.5738C53.165 87.4518 53.4158 89.1443 53.5538 90.8307C53.6638 92.1767 53.8322 93.7607 53.8779 93.8803C53.9138 93.9743 53.965 94 54.1163 94C54.2222 94 55.4715 93.8447 56.8926 93.6548C58.3137 93.4649 59.8916 93.2694 60.3991 93.2204C61.2763 93.1356 61.3261 93.1247 61.4082 93.0001C61.5334 92.8101 61.538 90.508 61.4133 90.384C61.3216 90.2927 61.1782 90.3134 59.8216 90.6138C58.8646 90.8257 57.5206 91.0062 57.2255 90.9624C56.7272 90.8883 56.6418 90.7658 56.5285 89.9633C56.4529 89.4273 56.4706 89.3909 56.8352 89.3338C57.8254 89.1785 59.178 89.0225 59.7553 88.9971C60.2013 88.9774 60.4785 88.9429 60.5119 88.9029C60.5461 88.8619 60.5475 88.7026 60.5157 88.4486C60.4888 88.2335 60.4498 87.6488 60.4291 87.1493C60.4047 86.5629 60.3704 86.233 60.3322 86.2184C60.2996 86.2061 59.8787 86.2752 59.3967 86.372C57.8946 86.6738 56.5398 86.8674 56.3621 86.8058C56.1687 86.7387 56.0738 86.5606 55.9966 86.1199C55.9038 85.5893 55.9352 85.4337 56.1569 85.327C56.3695 85.2248 57.7423 85.0557 59.078 84.9674C60.4197 84.8786 60.4059 84.8812 60.4054 84.7133C60.405 84.5418 60.0666 83.035 59.9494 82.6824C59.8072 82.2546 59.7782 82.2524 58.0424 82.5389ZM42.216 82.7621C42.1717 82.892 41.817 86.2678 41.817 86.5599C41.817 86.9317 41.9243 87.2825 42.4852 88.7442C43.3875 91.0959 44.4463 93.5928 44.5827 93.691C44.6816 93.7622 44.9359 93.8028 45.677 93.8655C46.2079 93.9104 46.785 93.9472 46.9594 93.9472H47.2764L47.5313 93.5378C47.6715 93.3126 48.1683 92.5342 48.6352 91.8079C49.6596 90.2144 50.5365 88.7383 50.9256 87.9519L51.2132 87.3709L51.3743 85.6277C51.463 84.669 51.5461 83.8075 51.5591 83.7133C51.5988 83.4238 51.5325 83.4009 50.5439 83.3625C50.0527 83.3433 49.3832 83.3132 49.0561 83.2954L48.4614 83.2632L48.4335 83.389C48.4182 83.4582 48.3558 84.2636 48.2949 85.1787C48.1668 87.1041 48.1652 87.1106 47.5516 88.1813C46.9542 89.2238 46.202 90.4033 46.1601 90.3631C46.0857 90.2918 45.3658 88.526 45.1328 87.8435C44.9707 87.3685 44.8974 87.0665 44.8974 86.8728C44.8974 86.7181 44.9918 85.935 45.1073 85.1325C45.3565 83.3994 45.3816 83.0708 45.2692 83.0123C45.1782 82.9648 42.7442 82.6913 42.4394 82.6942C42.3276 82.6953 42.2285 82.7254 42.216 82.7621Z" fill="#F6F1E3"/>
</svg>
