<svg width="18" height="16" viewBox="0 0 18 16" fill="none" xmlns="http://www.w3.org/2000/svg">
<path fill-rule="evenodd" clip-rule="evenodd" d="M3.07734 0.0520004C1.8873 0.272351 0.908181 1.0297 0.377516 2.14035C-0.499689 3.97634 0.201801 6.19791 1.96378 7.16378C3.00544 7.73481 4.31836 7.75081 5.37607 7.20538C6.4102 6.6721 7.14553 5.66801 7.36322 4.49192C7.42854 4.13904 7.43013 3.4936 7.36656 3.13096C7.08844 1.54391 5.85973 0.307177 4.30313 0.04753C3.91385 -0.0173998 3.44292 -0.0157054 3.07734 0.0520004ZM15.3454 0.0433841C15.2661 0.0700626 15.1315 0.141734 15.0464 0.202698C14.9614 0.263662 11.8507 3.43372 8.1339 7.24724C2.62203 12.9025 1.36061 14.2142 1.29257 14.3612C1.17188 14.6221 1.17318 15.0791 1.29542 15.3346C1.40539 15.5644 1.61639 15.7807 1.84065 15.8934C2.08985 16.0186 2.53584 16.02 2.79046 15.8963C2.93417 15.8266 4.21645 14.5299 9.79509 8.81301C15.3563 3.11401 16.6394 1.7816 16.7076 1.63479C16.7755 1.48871 16.7914 1.39642 16.7914 1.14809C16.7914 0.885957 16.7773 0.812122 16.6936 0.637558C16.58 0.400516 16.3756 0.197507 16.1449 0.0926671C15.9426 0.000734338 15.5454 -0.0237449 15.3454 0.0433841ZM4.15211 2.37321C4.45879 2.4703 4.73941 2.68402 4.91597 2.95502C5.11237 3.25645 5.17478 3.49404 5.1594 3.88217C5.14913 4.1424 5.12834 4.23501 5.03491 4.43752C4.88976 4.752 4.63627 5.01186 4.3292 5.16094C4.10722 5.2687 4.0673 5.27605 3.7051 5.27605C3.34072 5.27605 3.30463 5.26928 3.08688 5.16007C2.79718 5.01478 2.52501 4.72673 2.38243 4.41448C2.06277 3.71442 2.34553 2.85289 3.01494 2.48721C3.37854 2.2886 3.76304 2.25006 4.15211 2.37321ZM13.7485 8.41857C12.4396 8.62958 11.3095 9.54357 10.8362 10.774C10.6281 11.315 10.5999 11.4889 10.6019 12.2161C10.6037 12.8362 10.6105 12.9058 10.6998 13.2075C10.7527 13.386 10.8576 13.6651 10.9331 13.8278C11.825 15.7518 14.0878 16.5505 15.9471 15.5976C17.9096 14.5918 18.6025 12.0302 17.4207 10.15C16.8666 9.26839 16.024 8.67313 15.0325 8.4627C14.7377 8.40015 14.0166 8.37534 13.7485 8.41857ZM14.7236 10.7563C15.1611 10.8895 15.5514 11.2942 15.6886 11.7571C15.9896 12.7728 15.1779 13.7808 14.1391 13.6814C13.6659 13.6361 13.1814 13.2855 12.9646 12.8316C12.8581 12.6085 12.8515 12.5715 12.8515 12.1981C12.8515 11.8398 12.8609 11.7808 12.9491 11.5877C13.1301 11.1918 13.3695 10.9597 13.7719 10.7901C14.0184 10.6862 14.4437 10.6711 14.7236 10.7563Z" fill="#2E2E2F"/>
</svg>
