<svg width="14" height="16" viewBox="0 0 14 16" fill="none" xmlns="http://www.w3.org/2000/svg">
<path fill-rule="evenodd" clip-rule="evenodd" d="M3.63228 0.0373259C3.30712 0.133393 3.09167 0.31142 2.97633 0.579517C2.91494 0.722097 2.90604 1.17334 2.90604 4.13899V7.53515H1.45302H0V8.48304V9.43093H1.45302H2.90604V10.3568V11.2826H1.45302H0V12.2305V13.1784H1.45302H2.90604V14.5892V16H3.85959H4.81313V14.5892V13.1784H7.71918H10.6252V12.2305V11.2826H7.71918H4.81313V10.3568V9.43093H7.03984C8.31841 9.43093 9.45195 9.41087 9.70192 9.3838C11.7127 9.16609 13.3551 7.78509 13.8823 5.8689C13.9864 5.49041 14 5.35695 14 4.71354C14 4.07012 13.9864 3.93667 13.8823 3.55817C13.3551 1.64199 11.7127 0.260983 9.70192 0.0432778C9.20371 -0.0106415 3.81264 -0.0159321 3.63228 0.0373259ZM9.78519 1.95801C10.8453 2.17338 11.7619 3.03714 12.0075 4.05222C12.0963 4.4189 12.0963 5.00817 12.0075 5.37485C11.821 6.14577 11.228 6.86599 10.4885 7.22001C9.84881 7.52616 9.77057 7.53352 7.14024 7.5344L4.81313 7.53515V4.71354V1.89192L7.14024 1.89267C9.00646 1.89329 9.53028 1.90625 9.78519 1.95801Z" fill="#2E2E2F"/>
</svg>
