<svg width="14" height="16" viewBox="0 0 14 16" fill="none" xmlns="http://www.w3.org/2000/svg">
<path fill-rule="evenodd" clip-rule="evenodd" d="M6.68305 0.0144464C6.60957 0.0269652 6.49568 0.0718453 6.42994 0.114221C6.36421 0.156598 4.92789 1.49402 3.23813 3.08625C0.817214 5.3674 0.14855 6.01441 0.0844563 6.13772C-0.0268985 6.35189 -0.0283013 6.69343 0.0812165 6.92324C0.244441 7.26567 0.596541 7.47736 1.00509 7.47864C1.46233 7.48005 1.38174 7.54183 3.49337 5.57168C5.15564 4.02082 5.39545 3.80847 5.50627 3.78934C5.66282 3.76233 5.81045 3.81588 5.89839 3.93159C5.96255 4.01603 5.96385 4.1174 5.97267 9.63135L5.98165 15.2452L6.06853 15.4187C6.18843 15.6583 6.33676 15.8062 6.56007 15.909C6.81194 16.0249 7.1641 16.0307 7.42115 15.9231C7.63287 15.8345 7.84165 15.6381 7.94229 15.433L8.01904 15.2765L8.03574 9.64299C8.04907 5.14679 8.06106 3.99537 8.09519 3.93941C8.18033 3.7998 8.42361 3.73473 8.58069 3.80956C8.6208 3.82865 9.50282 4.63668 10.5407 5.60517C12.6434 7.56715 12.5368 7.48572 12.9956 7.48121C13.2975 7.47824 13.5276 7.38613 13.7236 7.18974C13.9103 7.00271 13.9976 6.79217 13.9976 6.52893C13.9976 6.10451 14.205 6.32478 10.7649 3.0963C8.54515 1.01307 7.61076 0.156222 7.49369 0.0965073C7.36557 0.031159 7.27382 0.0106282 7.07322 0.00233445C6.93211 -0.00348681 6.75653 0.00195889 6.68305 0.0144464Z" fill="#2E2E2F"/>
</svg>
